<svg width="447" height="530" viewBox="0 0 447 530" fill="none" xmlns="http://www.w3.org/2000/svg">
<path d="M134.462 122.302C134.462 95.4503 188.308 90.1913 199.077 107.172" stroke="black" stroke-width="20"/>
<path d="M16 193.744L80.6154 65.3023C161.255 -40.4207 256.944 24.922 339.077 65.3024L387.538 177.689L436 290.076L317.538 365H177.538L80.6154 176.972L16 193.744Z" stroke="#FFE72F" stroke-width="25"/>
<path d="M116.067 508V442.72H135.267C141.539 442.72 146.147 444.256 149.091 447.328C152.099 450.336 153.603 454.4 153.603 459.52V461.632C153.603 464.448 152.963 466.944 151.683 469.12C150.403 471.296 148.547 473.024 146.115 474.304C149.507 475.392 152.067 477.184 153.795 479.68C155.587 482.112 156.483 485.056 156.483 488.512V490.624C156.483 495.872 154.947 500.096 151.875 503.296C148.867 506.432 144.131 508 137.667 508H116.067ZM135.267 450.4H124.419V471.04H135.267C138.467 471.04 140.867 470.24 142.467 468.64C144.131 466.976 144.963 464.704 144.963 461.824V459.52C144.963 456.704 144.131 454.496 142.467 452.896C140.867 451.232 138.467 450.4 135.267 450.4ZM137.667 478.72H124.419V500.416H137.667C141.059 500.416 143.587 499.552 145.251 497.824C146.979 496.096 147.843 493.696 147.843 490.624V488.32C147.843 485.376 146.979 483.04 145.251 481.312C143.587 479.584 141.059 478.72 137.667 478.72ZM199.775 508V501.28C196.447 504.16 193.471 506.176 190.847 507.328C188.223 508.416 185.599 508.96 182.975 508.96C178.751 508.96 175.519 507.584 173.279 504.832C171.039 502.016 169.919 498.08 169.919 493.024V460.48H177.791V491.872C177.791 495.2 178.367 497.664 179.519 499.264C180.735 500.8 182.527 501.568 184.895 501.568C186.687 501.568 188.703 501.12 190.943 500.224C193.183 499.328 195.967 497.536 199.295 494.848V460.48H207.167V508H199.775ZM253.016 508V501.376C250.072 504.192 247.384 506.176 244.952 507.328C242.584 508.416 240.12 508.96 237.56 508.96C232.504 508.96 228.6 507.04 225.848 503.2C223.16 499.36 221.816 493.984 221.816 487.072V481.504C221.816 474.784 223.48 469.44 226.808 465.472C230.2 461.504 235.096 459.52 241.496 459.52C243.352 459.52 245.208 459.712 247.064 460.096C248.92 460.48 250.776 461.024 252.632 461.728V436.96H260.504V508H253.016ZM229.976 487.072C229.976 492.064 230.744 495.744 232.28 498.112C233.88 500.416 236.248 501.568 239.384 501.568C241.24 501.568 243.16 501.12 245.144 500.224C247.128 499.264 249.624 497.312 252.632 494.368V469.024C250.776 468.192 248.984 467.616 247.256 467.296C245.528 466.912 243.832 466.72 242.168 466.72C237.816 466.72 234.68 468.032 232.76 470.656C230.904 473.28 229.976 476.896 229.976 481.504V487.072ZM315.48 513.952C315.48 518.624 313.56 522.368 309.72 525.184C305.944 528 300.728 529.408 294.072 529.408C290.744 529.408 287.256 528.96 283.608 528.064C280.024 527.168 276.632 525.728 273.432 523.744L276.12 517.6C279.32 519.392 282.392 520.64 285.336 521.344C288.344 522.112 291.256 522.496 294.072 522.496C298.424 522.496 301.784 521.792 304.152 520.384C306.52 518.976 307.704 517.088 307.704 514.72C307.704 512.992 307.128 511.648 305.976 510.688C304.824 509.792 302.968 509.344 300.408 509.344H289.368C285.208 509.344 282.2 508.352 280.344 506.368C278.488 504.384 277.56 502.208 277.56 499.84C277.56 498.176 277.944 496.544 278.712 494.944C279.48 493.28 280.568 491.648 281.976 490.048C279.736 488.704 277.944 486.88 276.6 484.576C275.256 482.208 274.584 479.36 274.584 476.032C274.584 472.384 275.352 469.344 276.888 466.912C278.488 464.48 280.6 462.656 283.224 461.44C285.848 460.16 288.792 459.52 292.056 459.52H293.688C295.928 459.52 297.976 459.84 299.832 460.48H316.92V467.488L306.552 466.048C307.896 467.2 308.984 468.64 309.816 470.368C310.648 472.032 311.064 474.08 311.064 476.512C311.064 479.968 310.264 482.88 308.664 485.248C307.128 487.616 305.048 489.44 302.424 490.72C299.8 491.936 296.888 492.544 293.688 492.544H292.056C291.224 492.544 290.424 492.512 289.656 492.448C288.888 492.32 288.12 492.192 287.352 492.064C285.496 494.112 284.568 496.128 284.568 498.112C284.568 500.672 286.36 501.952 289.944 501.952H300.696C305.304 501.952 308.92 502.976 311.544 505.024C314.168 507.072 315.48 510.048 315.48 513.952ZM293.688 485.728C296.184 485.728 298.392 484.928 300.312 483.328C302.232 481.728 303.192 479.296 303.192 476.032C303.192 472.832 302.232 470.432 300.312 468.832C298.392 467.168 296.184 466.336 293.688 466.336H292.056C289.496 466.336 287.256 467.168 285.336 468.832C283.416 470.432 282.456 472.832 282.456 476.032C282.456 479.296 283.416 481.728 285.336 483.328C287.256 484.928 289.496 485.728 292.056 485.728H293.688ZM335.691 448.864H326.859V440.032H335.691V448.864ZM335.211 508H327.339V460.48H335.211V508ZM386.646 505.216C383.766 506.624 380.886 507.584 378.006 508.096C375.126 508.672 372.47 508.96 370.038 508.96C363.19 508.96 358.07 507.008 354.678 503.104C351.35 499.2 349.686 493.856 349.686 487.072V481.312C349.686 474.72 351.35 469.44 354.678 465.472C358.07 461.504 362.838 459.52 368.982 459.52C372.246 459.52 375.222 460.192 377.91 461.536C380.662 462.816 382.838 464.8 384.438 467.488C386.102 470.112 386.934 473.504 386.934 477.664C386.934 480.352 386.55 483.424 385.782 486.88H357.462V487.072C357.462 491.936 358.454 495.616 360.438 498.112C362.486 500.608 365.75 501.856 370.23 501.856C372.278 501.856 374.518 501.6 376.95 501.088C379.446 500.576 381.878 499.776 384.246 498.688L386.646 505.216ZM368.982 466.432C365.27 466.432 362.454 467.648 360.534 470.08C358.678 472.448 357.654 475.808 357.462 480.16H378.966C379.158 479.008 379.254 477.92 379.254 476.896C379.254 473.312 378.23 470.688 376.182 469.024C374.198 467.296 371.798 466.432 368.982 466.432Z" fill="black"/>
</svg>
