<svg width="110" height="103" viewBox="0 0 110 103" fill="none" xmlns="http://www.w3.org/2000/svg">
<path d="M107.77 100.44V42.927C106.77 7.94019 52.2695 -16.5598 21.7698 20.4271C16.2629 29.1581 16.0952 32.5626 16.2695 34.9402C22.7989 35.3506 30.1439 44.9702 25.0567 56.9402C25.0478 57.1119 25.0368 57.2856 25.0237 57.4614C24.8805 59.3719 24.4806 61.5208 23.7697 63.9271L10.2697 71.1426V100.44H107.77Z" fill="#FFE72F"/>
<path d="M23.7697 63.9271C24.4806 61.5208 24.8805 59.3719 25.0237 57.4614C25.0368 57.2856 25.0478 57.1119 25.0567 56.9402C25.8328 41.9104 10.2918 42.2165 6.76953 47.9402C-2.23043 58.4402 4.26953 77.4402 4.26953 77.4402L10.2697 71.1426L23.7697 63.9271Z" fill="#FF9705"/>
<path d="M25.0567 56.9402C30.1439 44.9702 22.7989 35.3506 16.2695 34.9402C11.8893 34.6648 5.56503 42.0595 6.76953 47.9402C10.2918 42.2165 25.8328 41.9104 25.0567 56.9402Z" fill="#EED3EA"/>
<path d="M6.76953 47.9402C-2.23043 58.4402 4.26953 77.4402 4.26953 77.4402L10.2697 71.1426M6.76953 47.9402C5.56503 42.0595 11.8893 34.6648 16.2695 34.9402M6.76953 47.9402C10.2918 42.2165 25.8328 41.9104 25.0567 56.9402M6.76953 47.9402C10.332 42.1511 26.1895 41.9041 25.0237 57.4614M25.0567 56.9402C30.1439 44.9702 22.7989 35.3506 16.2695 34.9402M25.0567 56.9402C25.0478 57.1119 25.0368 57.2856 25.0237 57.4614M16.2695 34.9402C16.0952 32.5626 16.2629 29.1581 21.7698 20.4271C52.2695 -16.5598 106.77 7.94019 107.77 42.927V100.44H10.2697V71.1426M16.2695 34.9402C16.2851 35.1531 16.2421 34.7895 16.2695 34.9402ZM10.2697 71.1426L23.7697 63.9271C24.4806 61.5208 24.8805 59.3719 25.0237 57.4614M42.5 42.927C45.5 36.9115 47.5 30.5598 62.5 37" stroke="black" stroke-width="4" stroke-linecap="round"/>
</svg>
