<svg width="40" height="37" viewBox="0 0 40 37" fill="none" xmlns="http://www.w3.org/2000/svg">
<path d="M21.4101 35.4135C21.035 35.7884 20.5264 35.999 19.9961 35.999C19.4658 35.999 18.9571 35.7884 18.5821 35.4135L6.58208 23.4135C6.53045 23.3615 6.48171 23.3067 6.43608 23.2495L6.42408 23.2334L6.39208 23.1895L6.30808 23.0715L6.29008 23.0415L6.27608 23.0215L6.24808 22.9675L6.20008 22.8794L6.18608 22.8455L6.16608 22.8055L6.14208 22.7415L6.11208 22.6735L6.09808 22.6235L6.08208 22.5835L6.07208 22.5315L6.04808 22.4575L6.04008 22.4015L6.02808 22.3514L6.02208 22.2994L6.01008 22.2334L6.00608 22.1735L6.00008 22.1175V22.0655L5.99608 21.9995L6.00008 21.9335V21.8815L6.00608 21.8295L6.01008 21.7655L6.02008 21.7075L6.02808 21.6475L6.04008 21.5995L6.04808 21.5395L6.07208 21.4694L6.08208 21.4155L6.09808 21.3775L6.11208 21.3255L6.14208 21.2595L6.16608 21.1915L6.18608 21.1555L6.20008 21.1195L6.24808 21.0335L6.27608 20.9775L6.29008 20.9594L6.30808 20.9275L6.39208 20.8115L6.41608 20.7735L6.42408 20.7675L6.43608 20.7474C6.52785 20.6338 6.63181 20.5305 6.74608 20.4395L6.76408 20.4275L6.80808 20.3955L6.92408 20.3115L6.95608 20.2935L6.97408 20.2795L7.03008 20.2515L7.11608 20.2035L7.15208 20.1895L7.18808 20.1695L7.25608 20.1455L7.32208 20.1154L7.37008 20.1035L7.41208 20.0855L7.46608 20.0755L7.53808 20.0515L7.59608 20.0435L7.64408 20.0315L7.70008 20.0254L7.76208 20.0135L7.82608 20.0095L7.87808 20.0035H7.93008L7.99608 19.9995L31.9961 19.9995C33.7761 19.9995 34.6701 22.1535 33.4101 23.4135L21.4101 35.4135ZM7.99608 15.9995L7.93008 15.9955H7.87808L7.82608 15.9895L7.76208 15.9855L7.70008 15.9735L7.64408 15.9675L7.59608 15.9555L7.53608 15.9475L7.46608 15.9235L7.41208 15.9135L7.37408 15.8975L7.32208 15.8835L7.25608 15.8535L7.18808 15.8295L7.15208 15.8095L7.11608 15.7955L7.03008 15.7474L6.97408 15.7194L6.95608 15.7055L6.92408 15.6875L6.82208 15.6135L6.77008 15.5795L6.76408 15.5715L6.74408 15.5595C6.6304 15.4677 6.52711 15.3637 6.43608 15.2495L6.42408 15.2315L6.39408 15.1915L6.30808 15.0715L6.29008 15.0395L6.27608 15.0215L6.24808 14.9655L6.20008 14.8794L6.19008 14.8535L6.16608 14.8075L6.14208 14.7395L6.11208 14.6735L6.09808 14.6215L6.08208 14.5815L6.07208 14.5295L6.04808 14.4575L6.04008 14.3995L6.02808 14.3514L6.02208 14.2955L6.01008 14.2334L6.00608 14.1695L6.00008 14.1175V14.0655L5.99608 13.9995L6.00008 13.9335V13.8815L6.00608 13.8295L6.01008 13.7655L6.02208 13.7035L6.02808 13.6475L6.04008 13.5995L6.04808 13.5395L6.07208 13.4694L6.08208 13.4155L6.09808 13.3775L6.11208 13.3255L6.14208 13.2595L6.16608 13.1915L6.18608 13.1555L6.20008 13.1195L6.24808 13.0335L6.27608 12.9775L6.29008 12.9594L6.30808 12.9275L6.39208 12.8115L6.41608 12.7735L6.42408 12.7675L6.43608 12.7474L6.58208 12.5855L18.5821 0.585449C18.9571 0.210507 19.4658 -0.00012207 19.9961 -0.00012207C20.5264 -0.00012207 21.035 0.210507 21.4101 0.585449L33.4101 12.5855C34.6701 13.8455 33.7781 15.9995 31.9961 15.9995L7.99608 15.9995Z" fill="#706301"/>
<path d="M21.4113 35.5934C20.6309 36.3706 19.3691 36.3706 18.5887 35.5934L6.11055 23.1661C4.84666 21.9074 5.7381 19.749 7.52188 19.749L32.4781 19.749C34.2619 19.749 35.1533 21.9074 33.8894 23.1661L21.4113 35.5934Z" fill="#E5D137"/>
</svg>
