<svg width="40" height="37" viewBox="0 0 40 37" fill="none" xmlns="http://www.w3.org/2000/svg">
<path d="M18.5899 1.58557C18.965 1.21063 19.4736 1 20.0039 1C20.5342 1 21.0429 1.21063 21.4179 1.58557L33.4179 13.5856C33.4696 13.6375 33.5183 13.6923 33.5639 13.7496L33.5759 13.7656L33.6079 13.8096L33.6919 13.9276L33.7099 13.9576L33.7239 13.9776L33.7519 14.0316L33.7999 14.1196L33.8139 14.1536L33.8339 14.1936L33.8579 14.2576L33.8879 14.3256L33.9019 14.3756L33.9179 14.4156L33.9279 14.4676L33.9519 14.5416L33.9599 14.5976L33.9719 14.6476L33.9779 14.6996L33.9899 14.7656L33.9939 14.8256L33.9999 14.8816V14.9336L34.0039 14.9996L33.9999 15.0656V15.1176L33.9939 15.1696L33.9899 15.2336L33.9799 15.2916L33.9719 15.3516L33.9599 15.3996L33.9519 15.4596L33.9279 15.5296L33.9179 15.5836L33.9019 15.6216L33.8879 15.6736L33.8579 15.7396L33.8339 15.8076L33.8139 15.8436L33.7999 15.8796L33.7519 15.9656L33.7239 16.0216L33.7099 16.0396L33.6919 16.0716L33.6079 16.1876L33.5839 16.2256L33.5759 16.2316L33.5639 16.2516C33.4721 16.3653 33.3682 16.4685 33.2539 16.5596L33.2359 16.5716L33.1919 16.6036L33.0759 16.6876L33.0439 16.7056L33.0259 16.7196L32.9699 16.7476L32.8839 16.7956L32.8479 16.8096L32.8119 16.8296L32.7439 16.8536L32.6779 16.8836L32.6299 16.8956L32.5879 16.9136L32.5339 16.9236L32.4619 16.9476L32.4039 16.9556L32.3559 16.9676L32.2999 16.9736L32.2379 16.9856L32.1739 16.9896L32.1219 16.9956H32.0699L32.0039 16.9996H8.00392C6.22392 16.9996 5.32992 14.8456 6.58992 13.5856L18.5899 1.58557ZM32.0039 20.9996L32.0699 21.0036H32.1219L32.1739 21.0096L32.2379 21.0136L32.2999 21.0256L32.3559 21.0316L32.4039 21.0436L32.4639 21.0516L32.5339 21.0756L32.5879 21.0856L32.6259 21.1016L32.6779 21.1156L32.7439 21.1456L32.8119 21.1696L32.8479 21.1896L32.8839 21.2036L32.9699 21.2516L33.0259 21.2796L33.0439 21.2936L33.0759 21.3116L33.1779 21.3856L33.2299 21.4196L33.2359 21.4276L33.2559 21.4396C33.3696 21.5313 33.4729 21.6353 33.5639 21.7496L33.5759 21.7676L33.6059 21.8076L33.6919 21.9276L33.7099 21.9596L33.7239 21.9776L33.7519 22.0336L33.7999 22.1196L33.8099 22.1456L33.8339 22.1916L33.8579 22.2596L33.8879 22.3256L33.9019 22.3776L33.9179 22.4176L33.9279 22.4696L33.9519 22.5416L33.9599 22.5996L33.9719 22.6476L33.9779 22.7036L33.9899 22.7656L33.9939 22.8296L33.9999 22.8816V22.9336L34.0039 22.9996L33.9999 23.0656V23.1176L33.9939 23.1696L33.9899 23.2336L33.9779 23.2956L33.9719 23.3516L33.9599 23.3996L33.9519 23.4596L33.9279 23.5296L33.9179 23.5836L33.9019 23.6216L33.8879 23.6736L33.8579 23.7396L33.8339 23.8076L33.8139 23.8436L33.7999 23.8796L33.7519 23.9656L33.7239 24.0216L33.7099 24.0396L33.6919 24.0716L33.6079 24.1876L33.5839 24.2256L33.5759 24.2316L33.5639 24.2516L33.4179 24.4136L21.4179 36.4136C21.0429 36.7885 20.5342 36.9991 20.0039 36.9991C19.4736 36.9991 18.965 36.7885 18.5899 36.4136L6.58992 24.4136C5.32992 23.1536 6.22192 20.9996 8.00392 20.9996H32.0039Z" fill="#706301"/>
<path d="M18.5887 1.40558C19.3691 0.628375 20.6309 0.628374 21.4113 1.40558L33.8894 13.8329C35.1533 15.0916 34.2619 17.25 32.4781 17.25H7.52188C5.7381 17.25 4.84666 15.0917 6.11055 13.8329L18.5887 1.40558Z" fill="#E5D137"/>
</svg>
