<svg width="28" height="36" viewBox="0 0 28 36" fill="none" xmlns="http://www.w3.org/2000/svg">
<path d="M12.5899 0.585573C12.965 0.210631 13.4736 0 14.0039 0C14.5342 0 15.0429 0.210631 15.4179 0.585573L27.4179 12.5856C27.4696 12.6375 27.5183 12.6923 27.5639 12.7496L27.5759 12.7656L27.6079 12.8096L27.6919 12.9276L27.7099 12.9576L27.7239 12.9776L27.7519 13.0316L27.7999 13.1196L27.8139 13.1536L27.8339 13.1936L27.8579 13.2576L27.8879 13.3256L27.9019 13.3756L27.9179 13.4156L27.9279 13.4676L27.9519 13.5416L27.9599 13.5976L27.9719 13.6476L27.9779 13.6996L27.9899 13.7656L27.9939 13.8256L27.9999 13.8816V13.9336L28.0039 13.9996L27.9999 14.0656V14.1176L27.9939 14.1696L27.9899 14.2336L27.9799 14.2916L27.9719 14.3516L27.9599 14.3996L27.9519 14.4596L27.9279 14.5296L27.9179 14.5836L27.9019 14.6216L27.8879 14.6736L27.8579 14.7396L27.8339 14.8076L27.8139 14.8436L27.7999 14.8796L27.7519 14.9656L27.7239 15.0216L27.7099 15.0396L27.6919 15.0716L27.6079 15.1876L27.5839 15.2256L27.5759 15.2316L27.5639 15.2516C27.4721 15.3653 27.3682 15.4685 27.2539 15.5596L27.2359 15.5716L27.1919 15.6036L27.0759 15.6876L27.0439 15.7056L27.0259 15.7196L26.9699 15.7476L26.8839 15.7956L26.8479 15.8096L26.8119 15.8296L26.7439 15.8536L26.6779 15.8836L26.6299 15.8956L26.5879 15.9136L26.5339 15.9236L26.4619 15.9476L26.4039 15.9556L26.3559 15.9676L26.2999 15.9736L26.2379 15.9856L26.1739 15.9896L26.1219 15.9956H26.0699L26.0039 15.9996H2.00392C0.22392 15.9996 -0.67008 13.8456 0.58992 12.5856L12.5899 0.585573ZM26.0039 19.9996L26.0699 20.0036H26.1219L26.1739 20.0096L26.2379 20.0136L26.2999 20.0256L26.3559 20.0316L26.4039 20.0436L26.4639 20.0516L26.5339 20.0756L26.5879 20.0856L26.6259 20.1016L26.6779 20.1156L26.7439 20.1456L26.8119 20.1696L26.8479 20.1896L26.8839 20.2036L26.9699 20.2516L27.0259 20.2796L27.0439 20.2936L27.0759 20.3116L27.1779 20.3856L27.2299 20.4196L27.2359 20.4276L27.2559 20.4396C27.3696 20.5313 27.4729 20.6353 27.5639 20.7496L27.5759 20.7676L27.6059 20.8076L27.6919 20.9276L27.7099 20.9596L27.7239 20.9776L27.7519 21.0336L27.7999 21.1196L27.8099 21.1456L27.8339 21.1916L27.8579 21.2596L27.8879 21.3256L27.9019 21.3776L27.9179 21.4176L27.9279 21.4696L27.9519 21.5416L27.9599 21.5996L27.9719 21.6476L27.9779 21.7036L27.9899 21.7656L27.9939 21.8296L27.9999 21.8816V21.9336L28.0039 21.9996L27.9999 22.0656V22.1176L27.9939 22.1696L27.9899 22.2336L27.9779 22.2956L27.9719 22.3516L27.9599 22.3996L27.9519 22.4596L27.9279 22.5296L27.9179 22.5836L27.9019 22.6216L27.8879 22.6736L27.8579 22.7396L27.8339 22.8076L27.8139 22.8436L27.7999 22.8796L27.7519 22.9656L27.7239 23.0216L27.7099 23.0396L27.6919 23.0716L27.6079 23.1876L27.5839 23.2256L27.5759 23.2316L27.5639 23.2516L27.4179 23.4136L15.4179 35.4136C15.0429 35.7885 14.5342 35.9991 14.0039 35.9991C13.4736 35.9991 12.965 35.7885 12.5899 35.4136L0.58992 23.4136C-0.67008 22.1536 0.22192 19.9996 2.00392 19.9996H26.0039Z" fill="#706301"/>
</svg>
